<svg width="24" height="24" viewBox="0 0 24 24" fill="none" xmlns="http://www.w3.org/2000/svg">
<path d="M15.9 10.2L12 5.00016L8.09999 10.2L6.89999 9.3L11.4 3.3C11.4699 3.20685 11.5604 3.13125 11.6646 3.07918C11.7687 3.02711 11.8836 3 12 3C12.1164 3 12.2313 3.02711 12.3354 3.07918C12.4395 3.13125 12.5301 3.20685 12.6 3.3L17.1 9.3L15.9 10.2Z" fill="black"/>
<path d="M20.6995 9H3.30048C3.21556 8.99997 3.13173 9.01917 3.05528 9.05616C2.97884 9.09316 2.91176 9.14698 2.85908 9.21359C2.8064 9.28021 2.76949 9.35788 2.75112 9.4408C2.73274 9.52371 2.73338 9.60971 2.75298 9.69234L5.27767 20.3438H18.7224L21.247 9.69234C21.2667 9.60971 21.2673 9.52371 21.2489 9.4408C21.2305 9.35788 21.1936 9.28021 21.141 9.21359C21.0883 9.14698 21.0212 9.09316 20.9447 9.05616C20.8683 9.01917 20.7845 8.99997 20.6995 9ZM12 16.4841C11.6507 16.4824 11.3097 16.3772 11.02 16.1819C10.7304 15.9866 10.5051 15.7098 10.3727 15.3865C10.2403 15.0632 10.2066 14.7079 10.276 14.3655C10.3453 14.0232 10.5146 13.709 10.7623 13.4627C11.0101 13.2164 11.3253 13.0491 11.6681 12.9818C12.0109 12.9146 12.366 12.9504 12.6885 13.0848C13.0109 13.2192 13.2863 13.4461 13.4799 13.7369C13.6735 14.0278 13.7766 14.3694 13.7761 14.7188C13.7734 15.188 13.585 15.637 13.2522 15.9678C12.9194 16.2986 12.4692 16.4842 12 16.4841Z" fill="black"/>
</svg>
