<svg width="24" height="24" viewBox="0 0 24 24" fill="none" xmlns="http://www.w3.org/2000/svg">
<path d="M22.2028 9.84373C21.5466 9.35717 20.7403 8.99998 19.8891 8.80733C19.7493 8.77588 19.6214 8.70533 19.5202 8.6039C19.419 8.50248 19.3488 8.37436 19.3177 8.23451C18.952 6.60561 18.165 5.20874 17.0081 4.1503C15.6633 2.91795 13.8848 2.24014 12 2.24014C10.343 2.24014 8.8125 2.75952 7.57641 3.74249C6.73867 4.40973 6.06434 5.25945 5.60484 6.22686C5.55503 6.33271 5.48114 6.42544 5.38908 6.49763C5.29703 6.56983 5.18936 6.61949 5.07469 6.64264C3.82078 6.89577 2.68875 7.43342 1.82437 8.19514C0.630937 9.24983 0 10.6519 0 12.2526C0 13.8708 0.679219 15.3464 1.91203 16.4133C3.08953 17.43 4.67484 17.9901 6.375 17.9901H11.25V10.8009L9.53016 12.5208C9.45835 12.5926 9.37272 12.649 9.27845 12.6867C9.18418 12.7245 9.08323 12.7426 8.98172 12.7402C8.88021 12.7377 8.78026 12.7147 8.68792 12.6725C8.59558 12.6302 8.51278 12.5697 8.44453 12.4945C8.17266 12.1959 8.19891 11.7305 8.48438 11.445L11.4698 8.45998C11.6105 8.31944 11.8012 8.24049 12 8.24049C12.1988 8.24049 12.3895 8.31944 12.5302 8.45998L15.5156 11.444C15.81 11.7389 15.8269 12.2222 15.5339 12.5179C15.4644 12.5881 15.3817 12.6439 15.2906 12.6821C15.1995 12.7202 15.1017 12.74 15.0029 12.7403C14.9041 12.7405 14.8063 12.7213 14.715 12.6836C14.6236 12.6459 14.5407 12.5906 14.4708 12.5208L12.75 10.8009V17.9901H18.5625C20.0316 17.9901 21.3708 17.5776 22.3336 16.829C23.4239 15.9806 24 14.7665 24 13.3214C24 11.918 23.3784 10.7147 22.2028 9.84373Z" fill="black"/>
<path d="M11.25 21.0098C11.25 21.2087 11.329 21.3995 11.4697 21.5402C11.6103 21.6808 11.8011 21.7598 12 21.7598C12.1989 21.7598 12.3897 21.6808 12.5303 21.5402C12.671 21.3995 12.75 21.2087 12.75 21.0098V17.9901H11.25V21.0098Z" fill="black"/>
</svg>
